# Blender v2.83.1 OBJ File: ''
# www.blender.org
mtllib oxygizmoScale.mtl
o Cube.002_Cone.001
v 0.000000 -0.012000 0.012000
v 0.000000 -0.012000 -0.012000
v -2.400000 -0.012000 0.012000
v 0.000000 0.012000 0.012000
v 0.000000 0.012000 -0.012000
v -2.400000 0.012000 0.012000
v -2.400000 0.012000 -0.012000
v -2.400000 -0.012000 -0.012000
v -2.325000 0.075000 0.075000
v -2.325000 -0.075000 0.075000
v -2.325000 0.075000 -0.075000
v -2.325000 -0.075000 -0.075000
v -2.475000 0.075000 0.075000
v -2.475000 -0.075000 0.075000
v -2.475000 0.075000 -0.075000
v -2.475000 -0.075000 -0.075000
vt 0.125000 0.500000
vt 0.375000 0.500000
vt 0.375000 0.750000
vt 0.125000 0.750000
vt 0.375000 0.000000
vt 0.625000 0.000000
vt 0.625000 0.250000
vt 0.375000 0.250000
vt 0.625000 0.750000
vt 0.625000 1.000000
vt 0.375000 1.000000
vt 0.625000 0.500000
vt 0.875000 0.500000
vt 0.875000 0.750000
vt 0.375000 0.000000
vt 0.625000 0.000000
vt 0.625000 0.250000
vt 0.375000 0.250000
vt 0.625000 0.500000
vt 0.375000 0.500000
vt 0.625000 0.750000
vt 0.375000 0.750000
vt 0.625000 1.000000
vt 0.375000 1.000000
vt 0.125000 0.500000
vt 0.125000 0.750000
vt 0.875000 0.500000
vt 0.875000 0.750000
vn 1.0000 0.0000 0.0000
vn -0.0000 -1.0000 0.0000
vn 0.0000 0.0000 1.0000
vn 0.0000 1.0000 0.0000
vn -1.0000 0.0000 0.0000
vn -0.0000 0.0000 -1.0000
usemtl Material.004
s off
f 2/1/1 5/2/1 4/3/1 1/4/1
f 1/5/2 3/6/2 8/7/2 2/8/2
f 4/3/3 6/9/3 3/10/3 1/11/3
f 5/2/4 7/12/4 6/9/4 4/3/4
f 7/12/5 8/13/5 3/14/5 6/9/5
f 2/8/6 8/7/6 7/12/6 5/2/6
f 9/15/1 10/16/1 12/17/1 11/18/1
f 11/18/6 12/17/6 16/19/6 15/20/6
f 15/20/5 16/19/5 14/21/5 13/22/5
f 13/22/3 14/21/3 10/23/3 9/24/3
f 11/25/4 15/20/4 13/22/4 9/26/4
f 16/19/2 12/27/2 10/28/2 14/21/2
o Cube_Cube.001
v 0.075000 0.075000 -2.325000
v 0.075000 -0.075000 -2.325000
v 0.075000 0.075000 -2.475000
v 0.075000 -0.075000 -2.475000
v -0.075000 0.075000 -2.325000
v -0.075000 -0.075000 -2.325000
v -0.075000 0.075000 -2.475000
v -0.075000 -0.075000 -2.475000
v 0.008000 0.008000 -2.400000
v 0.008000 -0.008000 -2.400000
v 0.008000 0.008000 0.000000
v -0.008000 0.008000 -2.400000
v -0.008000 -0.008000 -2.400000
v -0.008000 0.008000 0.000000
v -0.008000 -0.008000 0.000000
v 0.008000 -0.008000 0.000000
vt 0.375000 0.000000
vt 0.625000 0.000000
vt 0.625000 0.250000
vt 0.375000 0.250000
vt 0.625000 0.500000
vt 0.375000 0.500000
vt 0.625000 0.750000
vt 0.375000 0.750000
vt 0.625000 1.000000
vt 0.375000 1.000000
vt 0.125000 0.500000
vt 0.125000 0.750000
vt 0.875000 0.500000
vt 0.875000 0.750000
vt 0.375000 0.000000
vt 0.625000 0.000000
vt 0.625000 0.250000
vt 0.375000 0.250000
vt 0.125000 0.500000
vt 0.375000 0.500000
vt 0.375000 0.750000
vt 0.125000 0.750000
vt 0.625000 0.750000
vt 0.625000 1.000000
vt 0.375000 1.000000
vt 0.625000 0.500000
vt 0.875000 0.500000
vt 0.875000 0.750000
vn 1.0000 0.0000 0.0000
vn 0.0000 0.0000 -1.0000
vn -1.0000 0.0000 0.0000
vn 0.0000 0.0000 1.0000
vn 0.0000 1.0000 0.0000
vn 0.0000 -1.0000 0.0000
usemtl Material.002
s off
f 17/29/7 18/30/7 20/31/7 19/32/7
f 19/32/8 20/31/8 24/33/8 23/34/8
f 23/34/9 24/33/9 22/35/9 21/36/9
f 21/36/10 22/35/10 18/37/10 17/38/10
f 19/39/11 23/34/11 21/36/11 17/40/11
f 24/33/12 20/41/12 18/42/12 22/35/12
f 25/43/7 27/44/7 32/45/7 26/46/7
f 26/47/8 29/48/8 28/49/8 25/50/8
f 28/49/11 30/51/11 27/52/11 25/53/11
f 29/48/9 31/54/9 30/51/9 28/49/9
f 31/54/10 32/55/10 27/56/10 30/51/10
f 26/46/12 32/45/12 31/54/12 29/48/12
o Cube.005_Cube.003
v 0.075000 -2.325000 0.075000
v 0.075000 -2.475000 0.075000
v 0.075000 -2.325000 -0.075000
v 0.075000 -2.475000 -0.075000
v -0.075000 -2.325000 0.075000
v -0.075000 -2.475000 0.075000
v -0.075000 -2.325000 -0.075000
v -0.075000 -2.475000 -0.075000
v 0.012000 0.000000 0.012000
v 0.012000 0.000000 -0.012000
v 0.012000 -2.400000 0.012000
v -0.012000 0.000000 0.012000
v -0.012000 0.000000 -0.012000
v -0.012000 -2.400000 0.012000
v -0.012000 -2.400000 -0.012000
v 0.012000 -2.400000 -0.012000
vt 0.375000 0.000000
vt 0.625000 0.000000
vt 0.625000 0.250000
vt 0.375000 0.250000
vt 0.625000 0.500000
vt 0.375000 0.500000
vt 0.625000 0.750000
vt 0.375000 0.750000
vt 0.625000 1.000000
vt 0.375000 1.000000
vt 0.125000 0.500000
vt 0.125000 0.750000
vt 0.875000 0.500000
vt 0.875000 0.750000
vt 0.125000 0.500000
vt 0.375000 0.500000
vt 0.375000 0.750000
vt 0.125000 0.750000
vt 0.375000 0.000000
vt 0.625000 0.000000
vt 0.625000 0.250000
vt 0.375000 0.250000
vt 0.625000 0.750000
vt 0.625000 1.000000
vt 0.375000 1.000000
vt 0.625000 0.500000
vt 0.875000 0.500000
vt 0.875000 0.750000
vn 1.0000 0.0000 0.0000
vn 0.0000 0.0000 -1.0000
vn -1.0000 0.0000 0.0000
vn 0.0000 0.0000 1.0000
vn 0.0000 1.0000 0.0000
vn 0.0000 -1.0000 0.0000
usemtl Material.001
s off
f 33/57/13 34/58/13 36/59/13 35/60/13
f 35/60/14 36/59/14 40/61/14 39/62/14
f 39/62/15 40/61/15 38/63/15 37/64/15
f 37/64/16 38/63/16 34/65/16 33/66/16
f 35/67/17 39/62/17 37/64/17 33/68/17
f 40/61/18 36/69/18 34/70/18 38/63/18
f 42/71/17 45/72/17 44/73/17 41/74/17
f 41/75/13 43/76/13 48/77/13 42/78/13
f 44/73/16 46/79/16 43/80/16 41/81/16
f 45/72/15 47/82/15 46/79/15 44/73/15
f 47/82/18 48/83/18 43/84/18 46/79/18
f 42/78/14 48/77/14 47/82/14 45/72/14
