# Blender v2.83.1 OBJ File: ''
# www.blender.org
mtllib arrow.mtl
o Cone
v 0.372967 -0.014510 -0.376742
v 0.001234 0.038679 0.372998
v 0.370543 -0.087590 -0.369156
v 0.353831 -0.158790 -0.361717
v 0.323474 -0.225375 -0.354712
v 0.280639 -0.284785 -0.348410
v 0.226971 -0.334738 -0.343052
v 0.164534 -0.373313 -0.338845
v 0.095727 -0.399028 -0.335951
v 0.023193 -0.410895 -0.334480
v -0.050280 -0.408459 -0.334490
v -0.121867 -0.391812 -0.335979
v -0.188819 -0.361594 -0.338891
v -0.248562 -0.318966 -0.343114
v -0.298800 -0.265568 -0.348485
v -0.337604 -0.203450 -0.354798
v -0.363480 -0.135000 -0.361811
v -0.375436 -0.062849 -0.369254
v -0.373011 0.010231 -0.376840
v -0.356299 0.081432 -0.384279
v -0.325942 0.148017 -0.391284
v -0.283107 0.207427 -0.397586
v -0.229439 0.257379 -0.402944
v -0.167002 0.295954 -0.407151
v -0.098194 0.321669 -0.410045
v -0.025660 0.333537 -0.411516
v 0.047812 0.331100 -0.411506
v 0.119400 0.314453 -0.410016
v 0.186351 0.284235 -0.407104
v 0.246095 0.241607 -0.402882
v 0.296333 0.188208 -0.397510
v 0.335136 0.126091 -0.391197
v 0.361012 0.057641 -0.384185
vt 0.250000 0.490000
vt 0.250000 0.250000
vt 0.296822 0.485388
vt 0.341844 0.471731
vt 0.383337 0.449553
vt 0.419706 0.419706
vt 0.449553 0.383337
vt 0.471731 0.341844
vt 0.485388 0.296822
vt 0.490000 0.250000
vt 0.485388 0.203178
vt 0.471731 0.158156
vt 0.449553 0.116663
vt 0.419706 0.080294
vt 0.383337 0.050447
vt 0.341844 0.028269
vt 0.296822 0.014612
vt 0.250000 0.010000
vt 0.203178 0.014612
vt 0.158156 0.028269
vt 0.116663 0.050447
vt 0.080294 0.080294
vt 0.050447 0.116663
vt 0.028269 0.158156
vt 0.014611 0.203179
vt 0.010000 0.250000
vt 0.014612 0.296822
vt 0.028269 0.341844
vt 0.050447 0.383337
vt 0.080295 0.419706
vt 0.116663 0.449553
vt 0.158156 0.471731
vt 0.203179 0.485389
vt 0.985388 0.296822
vt 0.796822 0.014612
vt 0.514611 0.203179
vt 0.703179 0.485389
vt 0.750000 0.490000
vt 0.796822 0.485388
vt 0.841844 0.471731
vt 0.883337 0.449553
vt 0.919706 0.419706
vt 0.949553 0.383337
vt 0.971731 0.341844
vt 0.990000 0.250000
vt 0.985388 0.203178
vt 0.971731 0.158156
vt 0.949553 0.116663
vt 0.919706 0.080294
vt 0.883337 0.050447
vt 0.841844 0.028269
vt 0.750000 0.010000
vt 0.703178 0.014612
vt 0.658156 0.028269
vt 0.616663 0.050447
vt 0.580294 0.080294
vt 0.550447 0.116663
vt 0.528269 0.158156
vt 0.510000 0.250000
vt 0.514612 0.296822
vt 0.528269 0.341844
vt 0.550447 0.383337
vt 0.580295 0.419706
vt 0.616663 0.449553
vt 0.658156 0.471731
vn 0.8963 0.0163 0.4432
vn 0.8733 -0.1568 0.4612
vn 0.8168 -0.3221 0.4786
vn 0.7291 -0.4732 0.4945
vn 0.6133 -0.6044 0.5085
vn 0.4740 -0.7106 0.5200
vn 0.3166 -0.7877 0.5285
vn 0.1471 -0.8328 0.5337
vn -0.0281 -0.8441 0.5355
vn -0.2021 -0.8212 0.5337
vn -0.3682 -0.7650 0.5284
vn -0.5202 -0.6776 0.5199
vn -0.6521 -0.5624 0.5084
vn -0.7589 -0.4238 0.4943
vn -0.8365 -0.2672 0.4784
vn -0.8819 -0.0986 0.4610
vn -0.8933 0.0756 0.4430
vn -0.8704 0.2487 0.4250
vn -0.8139 0.4140 0.4076
vn -0.7261 0.5651 0.3917
vn -0.6104 0.6963 0.3777
vn -0.4711 0.8025 0.3662
vn -0.3137 0.8796 0.3577
vn -0.1441 0.9247 0.3525
vn 0.0310 0.9360 0.3507
vn 0.2050 0.9131 0.3525
vn 0.3712 0.8569 0.3578
vn 0.5231 0.7695 0.3664
vn 0.6551 0.6543 0.3779
vn 0.7619 0.5157 0.3919
vn 0.8394 0.3591 0.4079
vn 0.8848 0.1905 0.4252
vn -0.0033 -0.1031 -0.9947
vn -0.0033 -0.1032 -0.9947
usemtl None
s 1
f 1/1/1 2/2/1 3/3/1
f 3/3/2 2/2/2 4/4/2
f 4/4/3 2/2/3 5/5/3
f 5/5/4 2/2/4 6/6/4
f 6/6/5 2/2/5 7/7/5
f 7/7/6 2/2/6 8/8/6
f 8/8/7 2/2/7 9/9/7
f 9/9/8 2/2/8 10/10/8
f 10/10/9 2/2/9 11/11/9
f 11/11/10 2/2/10 12/12/10
f 12/12/11 2/2/11 13/13/11
f 13/13/12 2/2/12 14/14/12
f 14/14/13 2/2/13 15/15/13
f 15/15/14 2/2/14 16/16/14
f 16/16/15 2/2/15 17/17/15
f 17/17/16 2/2/16 18/18/16
f 18/18/17 2/2/17 19/19/17
f 19/19/18 2/2/18 20/20/18
f 20/20/19 2/2/19 21/21/19
f 21/21/20 2/2/20 22/22/20
f 22/22/21 2/2/21 23/23/21
f 23/23/22 2/2/22 24/24/22
f 24/24/23 2/2/23 25/25/23
f 25/25/24 2/2/24 26/26/24
f 26/26/25 2/2/25 27/27/25
f 27/27/26 2/2/26 28/28/26
f 28/28/27 2/2/27 29/29/27
f 29/29/28 2/2/28 30/30/28
f 30/30/29 2/2/29 31/31/29
f 31/31/30 2/2/30 32/32/30
f 32/32/31 2/2/31 33/33/31
f 33/33/32 2/2/32 1/1/32
f 9/34/33 17/35/33 25/36/33
f 33/37/33 1/38/33 3/39/33
f 3/39/33 4/40/33 5/41/33
f 5/41/33 6/42/33 7/43/33
f 7/43/33 8/44/33 5/41/33
f 8/44/33 9/34/33 5/41/33
f 9/34/33 10/45/34 11/46/33
f 11/46/33 12/47/33 9/34/33
f 12/47/33 13/48/33 9/34/33
f 13/48/33 14/49/33 17/35/33
f 14/49/33 15/50/33 17/35/33
f 15/50/33 16/51/33 17/35/33
f 17/35/33 18/52/33 19/53/33
f 19/53/33 20/54/34 21/55/33
f 21/55/33 22/56/33 23/57/33
f 23/57/33 24/58/33 25/36/33
f 25/36/33 26/59/34 27/60/33
f 27/60/33 28/61/34 29/62/33
f 29/62/33 30/63/34 33/37/33
f 30/63/34 31/64/33 33/37/33
f 31/64/33 32/65/34 33/37/33
f 33/37/33 3/39/33 5/41/33
f 17/35/33 19/53/33 25/36/33
f 19/53/33 21/55/33 25/36/33
f 21/55/33 23/57/33 25/36/33
f 25/36/33 27/60/33 33/37/33
f 27/60/33 29/62/33 33/37/33
f 33/37/33 5/41/33 9/34/33
f 9/34/33 13/48/33 17/35/33
f 33/37/33 9/34/33 25/36/33
o Cube.001_Cube.002
v 0.038014 0.028918 -0.050913
v 0.034838 -0.031554 -2.773829
v 0.034838 -0.031554 -0.050913
v 0.038014 0.028919 -2.773829
v -0.038014 -0.028918 -2.773829
v -0.034838 0.031555 -2.773829
v -0.038014 -0.028918 -0.050913
v -0.034838 0.031554 -0.050913
vt 0.625000 0.000000
vt 0.375000 0.000000
vt 0.375000 0.250000
vt 0.625000 0.250000
vt 0.375000 0.500000
vt 0.625000 0.500000
vt 0.375000 0.750000
vt 0.625000 0.750000
vt 0.375000 1.000000
vt 0.125000 0.500000
vt 0.125000 0.750000
vt 0.875000 0.500000
vt 0.625000 1.000000
vt 0.875000 0.750000
vn 0.9986 -0.0524 -0.0000
vn 0.0000 0.0000 -1.0000
vn -0.9986 0.0524 0.0000
vn 0.0000 -0.0000 1.0000
vn -0.0362 -0.9993 -0.0000
vn 0.0362 0.9993 0.0000
usemtl None
s 1
f 34/66/35 36/67/35 35/68/35
f 37/69/36 35/68/36 38/70/36
f 39/71/37 38/70/37 40/72/37
f 41/73/38 40/72/38 36/74/38
f 38/70/39 35/75/39 36/76/39
f 37/77/40 39/71/40 41/73/40
f 34/66/35 35/68/35 37/69/35
f 37/69/36 38/70/36 39/71/36
f 39/71/37 40/72/37 41/73/37
f 41/73/38 36/74/38 34/78/38
f 38/70/39 36/76/39 40/72/39
f 37/77/40 41/73/40 34/79/40
