# Blender v2.83.1 OBJ File: 'oxygizmo.blend'
# www.blender.org
mtllib oxygizmo2.mtl
o Green_Cone.003
v 0.000000 -2.400000 -0.100000
v -0.019509 -2.400000 -0.098079
v -0.038268 -2.400000 -0.092388
v -0.055557 -2.400000 -0.083147
v -0.070711 -2.400000 -0.070711
v -0.083147 -2.400000 -0.055557
v -0.092388 -2.400000 -0.038268
v -0.098079 -2.400000 -0.019509
v -0.100000 -2.400000 -0.000000
v -0.098079 -2.400000 0.019509
v -0.092388 -2.400000 0.038268
v -0.083147 -2.400000 0.055557
v -0.070711 -2.400000 0.070711
v -0.055557 -2.400000 0.083147
v -0.038268 -2.400000 0.092388
v -0.019509 -2.400000 0.098079
v 0.000000 -2.400000 0.100000
v 0.019509 -2.400000 0.098079
v 0.038268 -2.400000 0.092388
v 0.055557 -2.400000 0.083147
v 0.070711 -2.400000 0.070711
v 0.083147 -2.400000 0.055557
v 0.092388 -2.400000 0.038268
v 0.000000 -2.800000 0.000000
v 0.098079 -2.400000 0.019509
v 0.100000 -2.400000 -0.000000
v 0.098079 -2.400000 -0.019509
v 0.092388 -2.400000 -0.038268
v 0.083147 -2.400000 -0.055557
v 0.070711 -2.400000 -0.070711
v 0.055557 -2.400000 -0.083147
v 0.038268 -2.400000 -0.092388
v 0.019509 -2.400000 -0.098079
v 0.012000 0.000000 0.012000
v 0.012000 0.000000 -0.012000
v 0.012000 -2.400000 0.012000
v -0.012000 0.000000 0.012000
v -0.012000 0.000000 -0.012000
v -0.012000 -2.400000 0.012000
v -0.012000 -2.400000 -0.012000
v 0.012000 -2.400000 -0.012000
vt 0.250000 0.490000
vt 0.250000 0.250000
vt 0.296822 0.485388
vt 0.341844 0.471731
vt 0.383337 0.449553
vt 0.419706 0.419706
vt 0.449553 0.383337
vt 0.471731 0.341844
vt 0.485388 0.296822
vt 0.490000 0.250000
vt 0.485388 0.203178
vt 0.471731 0.158156
vt 0.449553 0.116663
vt 0.419706 0.080294
vt 0.383337 0.050447
vt 0.341844 0.028269
vt 0.296822 0.014612
vt 0.250000 0.010000
vt 0.203178 0.014612
vt 0.158156 0.028269
vt 0.116663 0.050447
vt 0.080294 0.080294
vt 0.050447 0.116663
vt 0.028269 0.158156
vt 0.014611 0.203179
vt 0.010000 0.250000
vt 0.014612 0.296822
vt 0.028269 0.341844
vt 0.050447 0.383337
vt 0.080295 0.419706
vt 0.116663 0.449553
vt 0.158156 0.471731
vt 0.203179 0.485389
vt 0.750000 0.490000
vt 0.796822 0.485388
vt 0.841844 0.471731
vt 0.883337 0.449553
vt 0.919706 0.419706
vt 0.949553 0.383337
vt 0.971731 0.341844
vt 0.985388 0.296822
vt 0.990000 0.250000
vt 0.985388 0.203178
vt 0.971731 0.158156
vt 0.949553 0.116663
vt 0.919706 0.080294
vt 0.883337 0.050447
vt 0.841844 0.028269
vt 0.796822 0.014612
vt 0.750000 0.010000
vt 0.703178 0.014612
vt 0.658156 0.028269
vt 0.616663 0.050447
vt 0.580294 0.080294
vt 0.550447 0.116663
vt 0.528269 0.158156
vt 0.514611 0.203179
vt 0.510000 0.250000
vt 0.514612 0.296822
vt 0.528269 0.341844
vt 0.550447 0.383337
vt 0.580295 0.419706
vt 0.616663 0.449553
vt 0.658156 0.471731
vt 0.703179 0.485389
vt 0.375000 0.000000
vt 0.625000 0.000000
vt 0.625000 0.250000
vt 0.375000 0.250000
vt 0.125000 0.500000
vt 0.375000 0.500000
vt 0.375000 0.750000
vt 0.125000 0.750000
vt 0.625000 0.750000
vt 0.625000 1.000000
vt 0.375000 1.000000
vt 0.625000 0.500000
vt 0.875000 0.500000
vt 0.875000 0.750000
vn -0.0951 -0.2414 -0.9657
vn -0.2817 -0.2414 -0.9286
vn -0.4575 -0.2414 -0.8558
vn -0.6156 -0.2414 -0.7501
vn -0.7501 -0.2414 -0.6156
vn -0.8558 -0.2414 -0.4574
vn -0.9286 -0.2414 -0.2817
vn -0.9657 -0.2414 -0.0951
vn -0.9657 -0.2414 0.0951
vn -0.9286 -0.2414 0.2817
vn -0.8558 -0.2414 0.4574
vn -0.7501 -0.2414 0.6156
vn -0.6156 -0.2414 0.7501
vn -0.4575 -0.2414 0.8558
vn -0.2817 -0.2414 0.9286
vn -0.0951 -0.2414 0.9657
vn 0.0951 -0.2414 0.9657
vn 0.2817 -0.2414 0.9286
vn 0.4575 -0.2414 0.8558
vn 0.6156 -0.2414 0.7501
vn 0.7501 -0.2414 0.6156
vn 0.8558 -0.2414 0.4574
vn 0.9286 -0.2414 0.2817
vn 0.9657 -0.2414 0.0951
vn 0.9657 -0.2414 -0.0951
vn 0.9286 -0.2414 -0.2817
vn 0.8558 -0.2414 -0.4575
vn 0.7501 -0.2414 -0.6156
vn 0.6156 -0.2414 -0.7501
vn 0.4575 -0.2414 -0.8558
vn 0.2817 -0.2414 -0.9286
vn 0.0951 -0.2414 -0.9657
vn 0.0000 1.0000 0.0000
vn 1.0000 0.0000 0.0000
vn 0.0000 0.0000 1.0000
vn -1.0000 0.0000 0.0000
vn 0.0000 -1.0000 0.0000
vn 0.0000 0.0000 -1.0000
usemtl Material.001
s off
f 1/1/1 24/2/1 2/3/1
f 2/3/2 24/2/2 3/4/2
f 3/4/3 24/2/3 4/5/3
f 4/5/4 24/2/4 5/6/4
f 5/6/5 24/2/5 6/7/5
f 6/7/6 24/2/6 7/8/6
f 7/8/7 24/2/7 8/9/7
f 8/9/8 24/2/8 9/10/8
f 9/10/9 24/2/9 10/11/9
f 10/11/10 24/2/10 11/12/10
f 11/12/11 24/2/11 12/13/11
f 12/13/12 24/2/12 13/14/12
f 13/14/13 24/2/13 14/15/13
f 14/15/14 24/2/14 15/16/14
f 15/16/15 24/2/15 16/17/15
f 16/17/16 24/2/16 17/18/16
f 17/18/17 24/2/17 18/19/17
f 18/19/18 24/2/18 19/20/18
f 19/20/19 24/2/19 20/21/19
f 20/21/20 24/2/20 21/22/20
f 21/22/21 24/2/21 22/23/21
f 22/23/22 24/2/22 23/24/22
f 23/24/23 24/2/23 25/25/23
f 25/25/24 24/2/24 26/26/24
f 26/26/25 24/2/25 27/27/25
f 27/27/26 24/2/26 28/28/26
f 28/28/27 24/2/27 29/29/27
f 29/29/28 24/2/28 30/30/28
f 30/30/29 24/2/29 31/31/29
f 31/31/30 24/2/30 32/32/30
f 32/32/31 24/2/31 33/33/31
f 33/33/32 24/2/32 1/1/32
f 1/34/33 2/35/33 3/36/33 4/37/33 5/38/33 6/39/33 7/40/33 8/41/33 9/42/33 10/43/33 11/44/33 12/45/33 13/46/33 14/47/33 15/48/33 16/49/33 17/50/33 18/51/33 19/52/33 20/53/33 21/54/33 22/55/33 23/56/33 25/57/33 26/58/33 27/59/33 28/60/33 29/61/33 30/62/33 31/63/33 32/64/33 33/65/33
f 34/66/34 36/67/34 41/68/34 35/69/34
f 35/70/33 38/71/33 37/72/33 34/73/33
f 37/72/35 39/74/35 36/75/35 34/76/35
f 38/71/36 40/77/36 39/74/36 37/72/36
f 40/77/37 41/78/37 36/79/37 39/74/37
f 35/69/38 41/68/38 40/77/38 38/71/38
o Red_Cone.001
v 0.000000 -0.008000 0.008000
v 0.000000 -0.008000 -0.008000
v -2.400000 -0.008000 0.008000
v 0.000000 0.008000 0.008000
v 0.000000 0.008000 -0.008000
v -2.400000 0.008000 0.008000
v -2.400000 0.008000 -0.008000
v -2.400000 -0.008000 -0.008000
v -2.400000 -0.000000 -0.100000
v -2.400000 0.019509 -0.098079
v -2.400000 0.038268 -0.092388
v -2.400000 0.055557 -0.083147
v -2.400000 0.070711 -0.070711
v -2.400000 0.083147 -0.055557
v -2.400000 0.092388 -0.038268
v -2.400000 0.098079 -0.019509
v -2.400000 0.100000 -0.000000
v -2.400000 0.098079 0.019509
v -2.400000 0.092388 0.038268
v -2.400000 0.083147 0.055557
v -2.400000 0.070711 0.070711
v -2.400000 0.055557 0.083147
v -2.400000 0.038268 0.092388
v -2.400000 0.019509 0.098079
v -2.400000 -0.000000 0.100000
v -2.400000 -0.019509 0.098079
v -2.400000 -0.038268 0.092388
v -2.400000 -0.055557 0.083147
v -2.400000 -0.070711 0.070711
v -2.400000 -0.083147 0.055557
v -2.400000 -0.092388 0.038268
v -2.800000 0.000000 0.000000
v -2.400000 -0.098079 0.019509
v -2.400000 -0.100000 -0.000000
v -2.400000 -0.098079 -0.019509
v -2.400000 -0.092388 -0.038268
v -2.400000 -0.083147 -0.055557
v -2.400000 -0.070711 -0.070711
v -2.400000 -0.055557 -0.083147
v -2.400000 -0.038268 -0.092388
v -2.400000 -0.019509 -0.098079
vt 0.125000 0.500000
vt 0.375000 0.500000
vt 0.375000 0.750000
vt 0.125000 0.750000
vt 0.375000 0.000000
vt 0.625000 0.000000
vt 0.625000 0.250000
vt 0.375000 0.250000
vt 0.625000 0.750000
vt 0.625000 1.000000
vt 0.375000 1.000000
vt 0.625000 0.500000
vt 0.875000 0.500000
vt 0.875000 0.750000
vt 0.250000 0.490000
vt 0.250000 0.250000
vt 0.296822 0.485388
vt 0.341844 0.471731
vt 0.383337 0.449553
vt 0.419706 0.419706
vt 0.449553 0.383337
vt 0.471731 0.341844
vt 0.485388 0.296822
vt 0.490000 0.250000
vt 0.485388 0.203178
vt 0.471731 0.158156
vt 0.449553 0.116663
vt 0.419706 0.080294
vt 0.383337 0.050447
vt 0.341844 0.028269
vt 0.296822 0.014612
vt 0.250000 0.010000
vt 0.203178 0.014612
vt 0.158156 0.028269
vt 0.116663 0.050447
vt 0.080294 0.080294
vt 0.050447 0.116663
vt 0.028269 0.158156
vt 0.014611 0.203179
vt 0.010000 0.250000
vt 0.014612 0.296822
vt 0.028269 0.341844
vt 0.050447 0.383337
vt 0.080295 0.419706
vt 0.116663 0.449553
vt 0.158156 0.471731
vt 0.203179 0.485389
vt 0.750000 0.490000
vt 0.796822 0.485388
vt 0.841844 0.471731
vt 0.883337 0.449553
vt 0.919706 0.419706
vt 0.949553 0.383337
vt 0.971731 0.341844
vt 0.985388 0.296822
vt 0.990000 0.250000
vt 0.985388 0.203178
vt 0.971731 0.158156
vt 0.949553 0.116663
vt 0.919706 0.080294
vt 0.883337 0.050447
vt 0.841844 0.028269
vt 0.796822 0.014612
vt 0.750000 0.010000
vt 0.703178 0.014612
vt 0.658156 0.028269
vt 0.616663 0.050447
vt 0.580294 0.080294
vt 0.550447 0.116663
vt 0.528269 0.158156
vt 0.514611 0.203179
vt 0.510000 0.250000
vt 0.514612 0.296822
vt 0.528269 0.341844
vt 0.550447 0.383337
vt 0.580295 0.419706
vt 0.616663 0.449553
vt 0.658156 0.471731
vt 0.703179 0.485389
vn 1.0000 0.0000 0.0000
vn -0.0000 -1.0000 0.0000
vn -0.0000 0.0000 1.0000
vn 0.0000 1.0000 0.0000
vn -1.0000 0.0000 0.0000
vn 0.0000 0.0000 -1.0000
vn -0.2414 0.0951 -0.9657
vn -0.2414 0.2817 -0.9286
vn -0.2414 0.4575 -0.8558
vn -0.2414 0.6156 -0.7501
vn -0.2414 0.7501 -0.6156
vn -0.2414 0.8558 -0.4575
vn -0.2414 0.9286 -0.2817
vn -0.2414 0.9657 -0.0951
vn -0.2414 0.9657 0.0951
vn -0.2414 0.9286 0.2817
vn -0.2414 0.8558 0.4575
vn -0.2414 0.7501 0.6156
vn -0.2414 0.6156 0.7501
vn -0.2414 0.4574 0.8558
vn -0.2414 0.2817 0.9286
vn -0.2414 0.0951 0.9657
vn -0.2414 -0.0951 0.9657
vn -0.2414 -0.2817 0.9286
vn -0.2414 -0.4575 0.8558
vn -0.2414 -0.6156 0.7501
vn -0.2414 -0.7501 0.6156
vn -0.2414 -0.8558 0.4575
vn -0.2414 -0.9286 0.2817
vn -0.2414 -0.9657 0.0951
vn -0.2414 -0.9657 -0.0951
vn -0.2414 -0.9286 -0.2817
vn -0.2414 -0.8558 -0.4575
vn -0.2414 -0.7501 -0.6156
vn -0.2414 -0.6156 -0.7501
vn -0.2414 -0.4574 -0.8558
vn -0.2414 -0.2817 -0.9286
vn -0.2414 -0.0951 -0.9657
usemtl Material.003
s off
f 43/80/39 46/81/39 45/82/39 42/83/39
f 42/84/40 44/85/40 49/86/40 43/87/40
f 45/82/41 47/88/41 44/89/41 42/90/41
f 46/81/42 48/91/42 47/88/42 45/82/42
f 48/91/43 49/92/43 44/93/43 47/88/43
f 43/87/44 49/86/44 48/91/44 46/81/44
f 50/94/45 73/95/45 51/96/45
f 51/96/46 73/95/46 52/97/46
f 52/97/47 73/95/47 53/98/47
f 53/98/48 73/95/48 54/99/48
f 54/99/49 73/95/49 55/100/49
f 55/100/50 73/95/50 56/101/50
f 56/101/51 73/95/51 57/102/51
f 57/102/52 73/95/52 58/103/52
f 58/103/53 73/95/53 59/104/53
f 59/104/54 73/95/54 60/105/54
f 60/105/55 73/95/55 61/106/55
f 61/106/56 73/95/56 62/107/56
f 62/107/57 73/95/57 63/108/57
f 63/108/58 73/95/58 64/109/58
f 64/109/59 73/95/59 65/110/59
f 65/110/60 73/95/60 66/111/60
f 66/111/61 73/95/61 67/112/61
f 67/112/62 73/95/62 68/113/62
f 68/113/63 73/95/63 69/114/63
f 69/114/64 73/95/64 70/115/64
f 70/115/65 73/95/65 71/116/65
f 71/116/66 73/95/66 72/117/66
f 72/117/67 73/95/67 74/118/67
f 74/118/68 73/95/68 75/119/68
f 75/119/69 73/95/69 76/120/69
f 76/120/70 73/95/70 77/121/70
f 77/121/71 73/95/71 78/122/71
f 78/122/72 73/95/72 79/123/72
f 79/123/73 73/95/73 80/124/73
f 80/124/74 73/95/74 81/125/74
f 81/125/75 73/95/75 82/126/75
f 82/126/76 73/95/76 50/94/76
f 50/127/39 51/128/39 52/129/39 53/130/39 54/131/39 55/132/39 56/133/39 57/134/39 58/135/39 59/136/39 60/137/39 61/138/39 62/139/39 63/140/39 64/141/39 65/142/39 66/143/39 67/144/39 68/145/39 69/146/39 70/147/39 71/148/39 72/149/39 74/150/39 75/151/39 76/152/39 77/153/39 78/154/39 79/155/39 80/156/39 81/157/39 82/158/39
o Blue.001_Cone.011
v 0.008000 0.008000 -2.400000
v 0.008000 -0.008000 -2.400000
v 0.008000 0.008000 0.000000
v -0.008000 0.008000 -2.400000
v -0.008000 -0.008000 -2.400000
v -0.008000 0.008000 0.000000
v -0.008000 -0.008000 0.000000
v 0.008000 -0.008000 0.000000
v 0.000000 0.100000 -2.400000
v -0.019509 0.098079 -2.400000
v -0.038268 0.092388 -2.400000
v -0.055557 0.083147 -2.400000
v -0.070711 0.070711 -2.400000
v -0.083147 0.055557 -2.400000
v -0.092388 0.038268 -2.400000
v -0.098079 0.019509 -2.400000
v -0.100000 -0.000000 -2.400000
v -0.098079 -0.019509 -2.400000
v -0.092388 -0.038268 -2.400000
v -0.083147 -0.055557 -2.400000
v -0.070711 -0.070711 -2.400000
v -0.055557 -0.083147 -2.400000
v -0.038268 -0.092388 -2.400000
v -0.019509 -0.098079 -2.400000
v 0.000000 -0.100000 -2.400000
v 0.019509 -0.098079 -2.400000
v 0.038268 -0.092388 -2.400000
v 0.055557 -0.083147 -2.400000
v 0.070711 -0.070711 -2.400000
v 0.083147 -0.055557 -2.400000
v 0.092388 -0.038268 -2.400000
v 0.000000 0.000000 -2.800000
v 0.098079 -0.019509 -2.400000
v 0.100000 0.000000 -2.400000
v 0.098079 0.019509 -2.400000
v 0.092388 0.038268 -2.400000
v 0.083147 0.055557 -2.400000
v 0.070711 0.070711 -2.400000
v 0.055557 0.083147 -2.400000
v 0.038268 0.092388 -2.400000
v 0.019509 0.098079 -2.400000
vt 0.375000 0.000000
vt 0.625000 0.000000
vt 0.625000 0.250000
vt 0.375000 0.250000
vt 0.125000 0.500000
vt 0.375000 0.500000
vt 0.375000 0.750000
vt 0.125000 0.750000
vt 0.625000 0.750000
vt 0.625000 1.000000
vt 0.375000 1.000000
vt 0.625000 0.500000
vt 0.875000 0.500000
vt 0.875000 0.750000
vt 0.250000 0.490000
vt 0.250000 0.250000
vt 0.296822 0.485388
vt 0.341844 0.471731
vt 0.383337 0.449553
vt 0.419706 0.419706
vt 0.449553 0.383337
vt 0.471731 0.341844
vt 0.485388 0.296822
vt 0.490000 0.250000
vt 0.485388 0.203178
vt 0.471731 0.158156
vt 0.449553 0.116663
vt 0.419706 0.080294
vt 0.383337 0.050447
vt 0.341844 0.028269
vt 0.296822 0.014612
vt 0.250000 0.010000
vt 0.203178 0.014612
vt 0.158156 0.028269
vt 0.116663 0.050447
vt 0.080294 0.080294
vt 0.050447 0.116663
vt 0.028269 0.158156
vt 0.014611 0.203179
vt 0.010000 0.250000
vt 0.014612 0.296822
vt 0.028269 0.341844
vt 0.050447 0.383337
vt 0.080295 0.419706
vt 0.116663 0.449553
vt 0.158156 0.471731
vt 0.203179 0.485389
vt 0.750000 0.490000
vt 0.796822 0.485388
vt 0.841844 0.471731
vt 0.883337 0.449553
vt 0.919706 0.419706
vt 0.949553 0.383337
vt 0.971731 0.341844
vt 0.985388 0.296822
vt 0.990000 0.250000
vt 0.985388 0.203178
vt 0.971731 0.158156
vt 0.949553 0.116663
vt 0.919706 0.080294
vt 0.883337 0.050447
vt 0.841844 0.028269
vt 0.796822 0.014612
vt 0.750000 0.010000
vt 0.703178 0.014612
vt 0.658156 0.028269
vt 0.616663 0.050447
vt 0.580294 0.080294
vt 0.550447 0.116663
vt 0.528269 0.158156
vt 0.514611 0.203179
vt 0.510000 0.250000
vt 0.514612 0.296822
vt 0.528269 0.341844
vt 0.550447 0.383337
vt 0.580295 0.419706
vt 0.616663 0.449553
vt 0.658156 0.471731
vt 0.703179 0.485389
vn 1.0000 0.0000 0.0000
vn 0.0000 0.0000 -1.0000
vn 0.0000 1.0000 -0.0000
vn -1.0000 0.0000 0.0000
vn 0.0000 0.0000 1.0000
vn 0.0000 -1.0000 0.0000
vn -0.0951 0.9657 -0.2414
vn -0.2817 0.9286 -0.2414
vn -0.4575 0.8558 -0.2414
vn -0.6156 0.7501 -0.2414
vn -0.7501 0.6156 -0.2414
vn -0.8558 0.4575 -0.2414
vn -0.9286 0.2817 -0.2414
vn -0.9657 0.0951 -0.2414
vn -0.9657 -0.0951 -0.2414
vn -0.9286 -0.2817 -0.2414
vn -0.8558 -0.4575 -0.2414
vn -0.7501 -0.6156 -0.2414
vn -0.6156 -0.7501 -0.2414
vn -0.4575 -0.8558 -0.2414
vn -0.2817 -0.9286 -0.2414
vn -0.0951 -0.9657 -0.2414
vn 0.0951 -0.9657 -0.2414
vn 0.2817 -0.9286 -0.2414
vn 0.4575 -0.8558 -0.2414
vn 0.6156 -0.7501 -0.2414
vn 0.7501 -0.6156 -0.2414
vn 0.8558 -0.4575 -0.2414
vn 0.9286 -0.2817 -0.2414
vn 0.9657 -0.0951 -0.2414
vn 0.9657 0.0951 -0.2414
vn 0.9286 0.2817 -0.2414
vn 0.8558 0.4575 -0.2414
vn 0.7501 0.6156 -0.2414
vn 0.6156 0.7501 -0.2414
vn 0.4574 0.8558 -0.2414
vn 0.2817 0.9286 -0.2414
vn 0.0951 0.9657 -0.2414
usemtl Material.002
s off
f 83/159/77 85/160/77 90/161/77 84/162/77
f 84/163/78 87/164/78 86/165/78 83/166/78
f 86/165/79 88/167/79 85/168/79 83/169/79
f 87/164/80 89/170/80 88/167/80 86/165/80
f 89/170/81 90/171/81 85/172/81 88/167/81
f 84/162/82 90/161/82 89/170/82 87/164/82
f 91/173/83 114/174/83 92/175/83
f 92/175/84 114/174/84 93/176/84
f 93/176/85 114/174/85 94/177/85
f 94/177/86 114/174/86 95/178/86
f 95/178/87 114/174/87 96/179/87
f 96/179/88 114/174/88 97/180/88
f 97/180/89 114/174/89 98/181/89
f 98/181/90 114/174/90 99/182/90
f 99/182/91 114/174/91 100/183/91
f 100/183/92 114/174/92 101/184/92
f 101/184/93 114/174/93 102/185/93
f 102/185/94 114/174/94 103/186/94
f 103/186/95 114/174/95 104/187/95
f 104/187/96 114/174/96 105/188/96
f 105/188/97 114/174/97 106/189/97
f 106/189/98 114/174/98 107/190/98
f 107/190/99 114/174/99 108/191/99
f 108/191/100 114/174/100 109/192/100
f 109/192/101 114/174/101 110/193/101
f 110/193/102 114/174/102 111/194/102
f 111/194/103 114/174/103 112/195/103
f 112/195/104 114/174/104 113/196/104
f 113/196/105 114/174/105 115/197/105
f 115/197/106 114/174/106 116/198/106
f 116/198/107 114/174/107 117/199/107
f 117/199/108 114/174/108 118/200/108
f 118/200/109 114/174/109 119/201/109
f 119/201/110 114/174/110 120/202/110
f 120/202/111 114/174/111 121/203/111
f 121/203/112 114/174/112 122/204/112
f 122/204/113 114/174/113 123/205/113
f 123/205/114 114/174/114 91/173/114
f 91/206/81 92/207/81 93/208/81 94/209/81 95/210/81 96/211/81 97/212/81 98/213/81 99/214/81 100/215/81 101/216/81 102/217/81 103/218/81 104/219/81 105/220/81 106/221/81 107/222/81 108/223/81 109/224/81 110/225/81 111/226/81 112/227/81 113/228/81 115/229/81 116/230/81 117/231/81 118/232/81 119/233/81 120/234/81 121/235/81 122/236/81 123/237/81
