# Blender v2.83.1 OBJ File: 'oxyRotate.blend'
# www.blender.org
mtllib oxygizmoRotation.mtl
o Circle_Cube.001
v 1.550094 0.010000 0.000000
v 1.432100 0.010000 0.593195
v 1.096082 0.010000 1.096082
v 0.593195 0.010000 1.432100
v -0.000000 0.010000 1.550094
v -0.593195 0.010000 1.432100
v -1.550094 0.010000 -0.000000
v -1.432100 0.010000 0.593195
v -1.096082 0.010000 1.096082
v 1.096082 0.080982 1.096082
v 1.550094 0.080982 0.000000
v 1.432100 0.080982 0.593195
v 0.593195 0.080982 1.432100
v -0.000000 0.080982 1.550094
v -0.593195 0.080982 1.432100
v -1.096082 0.080982 1.096082
v -1.550094 0.080982 -0.000000
v -1.432100 0.080982 0.593195
v 1.520309 0.010000 0.302408
v 1.288856 0.010000 0.861186
v -0.000000 0.045491 1.550094
v -0.593195 0.045491 1.432100
v -1.520309 0.010000 0.302408
v -1.288856 0.010000 0.861186
v 0.861186 0.010000 1.288856
v 0.302408 0.010000 1.520309
v -0.302408 0.010000 1.520309
v -0.861186 0.010000 1.288856
v 1.520309 0.080982 0.302408
v 1.288856 0.080982 0.861186
v -1.520309 0.080982 0.302408
v -1.288856 0.080982 0.861186
v 0.861186 0.080982 1.288856
v 0.302408 0.080982 1.520309
v -0.302408 0.080982 1.520309
v -0.861186 0.080982 1.288856
v 0.593195 0.045491 1.432100
v 1.096082 0.045491 1.096082
v -1.550094 0.045491 -0.000000
v -1.096082 0.045491 1.096082
v -1.432100 0.045491 0.593195
v 1.550094 0.045491 0.000000
v 1.432100 0.045491 0.593195
v 1.288856 0.045491 0.861186
v 1.520309 0.045491 0.302408
v 0.302408 0.045491 1.520309
v -1.288856 0.045491 0.861186
v -1.520309 0.045491 0.302408
v -0.861186 0.045491 1.288856
v -0.302408 0.045491 1.520309
v 0.861186 0.045491 1.288856
vt 0.437500 0.708333
vt 0.458333 0.708333
vt 0.458333 0.708333
vt 0.437500 0.708333
vt 0.520833 0.708333
vt 0.541667 0.708333
vt 0.541667 0.708333
vt 0.520833 0.708333
vt 0.562500 0.708333
vt 0.583333 0.708333
vt 0.583333 0.708333
vt 0.562500 0.708333
vt 0.583333 0.645833
vt 0.583333 0.625000
vt 0.583333 0.625000
vt 0.583333 0.645833
vt 0.583333 0.687500
vt 0.583333 0.666667
vt 0.583333 0.666667
vt 0.583333 0.687500
vt 0.479167 0.708333
vt 0.500000 0.708333
vt 0.500000 0.708333
vt 0.479167 0.708333
vt 0.416667 0.645833
vt 0.416667 0.666667
vt 0.416667 0.666667
vt 0.416667 0.645833
vt 0.416667 0.687500
vt 0.416667 0.708333
vt 0.416667 0.708333
vt 0.416667 0.687500
vt 0.416667 0.666667
vt 0.416667 0.687500
vt 0.416667 0.708333
vt 0.416667 0.625000
vt 0.416667 0.625000
vt 0.416667 0.625000
vt 0.416667 0.645833
vt 0.458333 0.708333
vt 0.479167 0.708333
vt 0.500000 0.708333
vt 0.583333 0.708333
vt 0.583333 0.687500
vt 0.583333 0.666667
vt 0.583333 0.645833
vt 0.583333 0.625000
vt 0.541667 0.708333
vt 0.562500 0.708333
vt 0.520833 0.708333
vt 0.437500 0.708333
vn -0.4714 0.0000 -0.8819
vn 0.2903 0.0000 -0.9569
vn 0.6344 0.0000 -0.7730
vn 0.9952 0.0000 -0.0980
vn 0.8819 0.0000 -0.4714
vn -0.0980 -0.0000 -0.9952
vn -0.9569 0.0000 -0.2903
vn -0.7730 0.0000 -0.6344
vn -0.8819 0.0000 -0.4714
vn -0.9952 0.0000 -0.0980
vn -0.2903 0.0000 -0.9569
vn 0.7730 0.0000 -0.6344
vn 0.9569 0.0000 -0.2903
vn 0.4714 0.0000 -0.8819
vn 0.0980 -0.0000 -0.9952
vn -0.6344 0.0000 -0.7730
usemtl Material.002
s off
f 51/1/1 37/2/1 13/3/1 33/4/1
f 50/5/2 22/6/2 15/7/2 35/8/2
f 49/9/3 40/10/3 16/11/3 36/12/3
f 48/13/4 39/14/4 17/15/4 31/16/4
f 47/17/5 41/18/5 18/19/5 32/20/5
f 46/21/6 21/22/6 14/23/6 34/24/6
f 45/25/7 43/26/7 12/27/7 29/28/7
f 44/29/8 38/30/8 10/31/8 30/32/8
f 43/26/9 44/29/9 30/32/9 12/27/9
f 2/33/9 20/34/9 44/29/9 43/26/9
f 20/34/8 3/35/8 38/30/8 44/29/8
f 42/36/10 45/25/10 29/28/10 11/37/10
f 1/38/10 19/39/10 45/25/10 42/36/10
f 19/39/7 2/33/7 43/26/7 45/25/7
f 37/2/11 46/21/11 34/24/11 13/3/11
f 4/40/11 26/41/11 46/21/11 37/2/11
f 26/41/6 5/42/6 21/22/6 46/21/6
f 40/10/12 47/17/12 32/20/12 16/11/12
f 9/43/12 24/44/12 47/17/12 40/10/12
f 24/44/5 8/45/5 41/18/5 47/17/5
f 41/18/13 48/13/13 31/16/13 18/19/13
f 8/45/13 23/46/13 48/13/13 41/18/13
f 23/46/4 7/47/4 39/14/4 48/13/4
f 22/6/14 49/9/14 36/12/14 15/7/14
f 6/48/14 28/49/14 49/9/14 22/6/14
f 28/49/3 9/43/3 40/10/3 49/9/3
f 21/22/15 50/5/15 35/8/15 14/23/15
f 5/42/15 27/50/15 50/5/15 21/22/15
f 27/50/2 6/48/2 22/6/2 50/5/2
f 38/30/16 51/1/16 33/4/16 10/31/16
f 3/35/16 25/51/16 51/1/16 38/30/16
f 25/51/1 4/40/1 37/2/1 51/1/1
o Circle.002_Cube.002
v 1.096082 1.096082 -0.010000
v 0.593195 1.432100 -0.010000
v -0.000000 1.550094 -0.010000
v 1.432100 0.593195 -0.010000
v 1.550094 0.000000 -0.010000
v 1.432100 -0.593195 -0.010000
v 1.096082 -1.096082 -0.010000
v 0.593195 -1.432100 -0.010000
v 0.000000 -1.550094 -0.010000
v 1.096082 1.096082 -0.080982
v 0.593195 1.432100 -0.080982
v -0.000000 1.550094 -0.080982
v 1.432100 0.593195 -0.080982
v 1.550094 0.000000 -0.080982
v 1.432100 -0.593195 -0.080982
v 1.096082 -1.096082 -0.080982
v 0.593195 -1.432100 -0.080982
v 0.000000 -1.550094 -0.080982
v 1.096082 -1.096082 -0.045491
v 1.432100 -0.593195 -0.045491
v 0.861186 1.288856 -0.010000
v 0.302408 1.520309 -0.010000
v 0.861186 -1.288856 -0.010000
v 0.302408 -1.520309 -0.010000
v 1.432100 0.593195 -0.045491
v 1.096082 1.096082 -0.045491
v 1.288856 0.861186 -0.010000
v 1.520309 0.302408 -0.010000
v 1.520309 -0.302408 -0.010000
v 1.288856 -0.861186 -0.010000
v 0.861186 1.288856 -0.080982
v 0.302408 1.520309 -0.080982
v 0.861186 -1.288856 -0.080982
v 0.302408 -1.520309 -0.080982
v 1.288856 0.861186 -0.080982
v 1.520309 0.302408 -0.080982
v 1.520309 -0.302408 -0.080982
v 1.288856 -0.861186 -0.080982
v 0.593195 -1.432100 -0.045491
v 1.550094 0.000000 -0.045491
v 0.000000 -1.550094 -0.045491
v 0.593195 1.432100 -0.045491
v -0.000000 1.550094 -0.045491
v 1.520309 -0.302408 -0.045491
v 0.302408 1.520309 -0.045491
v 0.861186 1.288856 -0.045491
v 0.302408 -1.520309 -0.045491
v 1.520309 0.302408 -0.045491
v 0.861186 -1.288856 -0.045491
v 1.288856 0.861186 -0.045491
v 1.288856 -0.861186 -0.045491
vt 0.562500 0.541667
vt 0.541667 0.541667
vt 0.541667 0.541667
vt 0.562500 0.541667
vt 0.437500 0.541667
vt 0.416667 0.541667
vt 0.416667 0.541667
vt 0.437500 0.541667
vt 0.583333 0.562500
vt 0.583333 0.541667
vt 0.583333 0.541667
vt 0.583333 0.562500
vt 0.479167 0.541667
vt 0.458333 0.541667
vt 0.458333 0.541667
vt 0.479167 0.541667
vt 0.583333 0.604167
vt 0.583333 0.583333
vt 0.583333 0.583333
vt 0.583333 0.604167
vt 0.416667 0.562500
vt 0.416667 0.583333
vt 0.416667 0.583333
vt 0.416667 0.562500
vt 0.416667 0.604167
vt 0.416667 0.625000
vt 0.416667 0.625000
vt 0.416667 0.604167
vt 0.520833 0.541667
vt 0.500000 0.541667
vt 0.500000 0.541667
vt 0.520833 0.541667
vt 0.541667 0.541667
vt 0.520833 0.541667
vt 0.500000 0.541667
vt 0.416667 0.583333
vt 0.416667 0.604167
vt 0.416667 0.625000
vt 0.416667 0.541667
vt 0.416667 0.562500
vt 0.583333 0.625000
vt 0.583333 0.625000
vt 0.583333 0.625000
vt 0.583333 0.604167
vt 0.583333 0.583333
vt 0.479167 0.541667
vt 0.458333 0.541667
vt 0.583333 0.562500
vt 0.583333 0.541667
vt 0.437500 0.541667
vt 0.562500 0.541667
vn -0.8819 0.4714 0.0000
vn -0.7730 -0.6344 0.0000
vn -0.6344 0.7730 0.0000
vn -0.9569 -0.2903 0.0000
vn -0.2903 0.9569 0.0000
vn -0.4714 -0.8819 0.0000
vn -0.0980 -0.9952 0.0000
vn -0.9952 0.0980 0.0000
vn -0.9569 0.2903 0.0000
vn -0.2903 -0.9569 0.0000
vn -0.6344 -0.7730 0.0000
vn -0.0980 0.9952 0.0000
vn -0.9952 -0.0980 0.0000
vn -0.4714 0.8819 0.0000
vn -0.8819 -0.4714 0.0000
vn -0.7730 0.6344 0.0000
usemtl Material.003
s off
f 102/52/17 71/53/17 66/54/17 89/55/17
f 101/56/18 77/57/18 61/58/18 86/59/18
f 100/60/19 70/61/19 67/62/19 84/63/19
f 99/64/20 76/65/20 64/66/20 87/67/20
f 98/68/21 90/69/21 68/70/21 85/71/21
f 97/72/22 93/73/22 62/74/22 82/75/22
f 96/76/23 94/77/23 63/78/23 83/79/23
f 95/80/24 91/81/24 65/82/24 88/83/24
f 71/53/25 95/80/25 88/83/25 66/54/25
f 57/84/25 80/85/25 95/80/25 71/53/25
f 80/85/24 56/86/24 91/81/24 95/80/24
f 93/73/26 96/76/26 83/79/26 62/74/26
f 53/87/26 73/88/26 96/76/26 93/73/26
f 73/88/23 54/89/23 94/77/23 96/76/23
f 77/57/27 97/72/27 82/75/27 61/58/27
f 52/90/27 72/91/27 97/72/27 77/57/27
f 72/91/22 53/87/22 93/73/22 97/72/22
f 92/92/28 98/68/28 85/71/28 69/93/28
f 60/94/28 75/95/28 98/68/28 92/92/28
f 75/95/21 59/96/21 90/69/21 98/68/21
f 91/81/29 99/64/29 87/67/29 65/82/29
f 56/86/29 79/97/29 99/64/29 91/81/29
f 79/97/20 55/98/20 76/65/20 99/64/20
f 90/69/30 100/60/30 84/63/30 68/70/30
f 59/96/30 74/99/30 100/60/30 90/69/30
f 74/99/19 58/100/19 70/61/19 100/60/19
f 76/65/31 101/56/31 86/59/31 64/66/31
f 55/98/31 78/101/31 101/56/31 76/65/31
f 78/101/18 52/90/18 77/57/18 101/56/18
f 70/61/32 102/52/32 89/55/32 67/62/32
f 58/100/32 81/102/32 102/52/32 70/61/32
f 81/102/17 57/84/17 71/53/17 102/52/17
o Circle.001_Cube.003
v -0.010000 1.550094 0.000000
v -0.010000 1.432100 0.593195
v -0.010000 1.096082 1.096082
v -0.010000 0.593195 1.432100
v -0.010000 -0.000000 1.550094
v -0.010000 -0.593195 1.432100
v -0.010000 -1.550094 -0.000000
v -0.010000 -1.432100 0.593195
v -0.010000 -1.096082 1.096082
v -0.080982 1.096082 1.096082
v -0.080982 1.550094 0.000000
v -0.080982 1.432100 0.593195
v -0.080982 0.593195 1.432100
v -0.080982 -0.000000 1.550094
v -0.080982 -0.593195 1.432100
v -0.080982 -1.096082 1.096082
v -0.080982 -1.550094 -0.000000
v -0.080982 -1.432100 0.593195
v -0.010000 1.520309 0.302408
v -0.010000 1.288856 0.861186
v -0.045491 -0.000000 1.550094
v -0.045491 -0.593195 1.432100
v -0.010000 -1.520309 0.302408
v -0.010000 -1.288856 0.861186
v -0.010000 0.861186 1.288856
v -0.010000 0.302408 1.520309
v -0.010000 -0.302408 1.520309
v -0.010000 -0.861186 1.288856
v -0.080982 1.520309 0.302408
v -0.080982 1.288856 0.861186
v -0.080982 -1.520309 0.302408
v -0.080982 -1.288856 0.861186
v -0.080982 0.861186 1.288856
v -0.080982 0.302408 1.520309
v -0.080982 -0.302408 1.520309
v -0.080982 -0.861186 1.288856
v -0.045491 0.593195 1.432100
v -0.045491 1.096082 1.096082
v -0.045491 -1.550094 -0.000000
v -0.045491 -1.096082 1.096082
v -0.045491 -1.432100 0.593195
v -0.045491 1.550094 0.000000
v -0.045491 1.432100 0.593195
v -0.045491 1.288856 0.861186
v -0.045491 1.520309 0.302408
v -0.045491 0.302408 1.520309
v -0.045491 -1.288856 0.861186
v -0.045491 -1.520309 0.302408
v -0.045491 -0.861186 1.288856
v -0.045491 -0.302408 1.520309
v -0.045491 0.861186 1.288856
vt 0.437500 0.708333
vt 0.458333 0.708333
vt 0.458333 0.708333
vt 0.437500 0.708333
vt 0.520833 0.708333
vt 0.541667 0.708333
vt 0.541667 0.708333
vt 0.520833 0.708333
vt 0.562500 0.708333
vt 0.583333 0.708333
vt 0.583333 0.708333
vt 0.562500 0.708333
vt 0.583333 0.645833
vt 0.583333 0.625000
vt 0.583333 0.625000
vt 0.583333 0.645833
vt 0.583333 0.687500
vt 0.583333 0.666667
vt 0.583333 0.666667
vt 0.583333 0.687500
vt 0.479167 0.708333
vt 0.500000 0.708333
vt 0.500000 0.708333
vt 0.479167 0.708333
vt 0.416667 0.645833
vt 0.416667 0.666667
vt 0.416667 0.666667
vt 0.416667 0.645833
vt 0.416667 0.687500
vt 0.416667 0.708333
vt 0.416667 0.708333
vt 0.416667 0.687500
vt 0.416667 0.666667
vt 0.416667 0.687500
vt 0.416667 0.708333
vt 0.416667 0.625000
vt 0.416667 0.625000
vt 0.416667 0.625000
vt 0.416667 0.645833
vt 0.458333 0.708333
vt 0.479167 0.708333
vt 0.500000 0.708333
vt 0.583333 0.708333
vt 0.583333 0.687500
vt 0.583333 0.666667
vt 0.583333 0.645833
vt 0.583333 0.625000
vt 0.541667 0.708333
vt 0.562500 0.708333
vt 0.520833 0.708333
vt 0.437500 0.708333
vn 0.0000 -0.4714 -0.8819
vn 0.0000 0.2903 -0.9569
vn 0.0000 0.6344 -0.7730
vn 0.0000 0.9952 -0.0980
vn 0.0000 0.8819 -0.4714
vn 0.0000 -0.0980 -0.9952
vn 0.0000 -0.9569 -0.2903
vn 0.0000 -0.7730 -0.6344
vn 0.0000 -0.8819 -0.4714
vn 0.0000 -0.9952 -0.0980
vn 0.0000 -0.2903 -0.9569
vn 0.0000 0.7730 -0.6344
vn 0.0000 0.9569 -0.2903
vn 0.0000 0.4714 -0.8819
vn 0.0000 0.0980 -0.9952
vn 0.0000 -0.6344 -0.7730
usemtl Material.001
s off
f 153/103/33 139/104/33 115/105/33 135/106/33
f 152/107/34 124/108/34 117/109/34 137/110/34
f 151/111/35 142/112/35 118/113/35 138/114/35
f 150/115/36 141/116/36 119/117/36 133/118/36
f 149/119/37 143/120/37 120/121/37 134/122/37
f 148/123/38 123/124/38 116/125/38 136/126/38
f 147/127/39 145/128/39 114/129/39 131/130/39
f 146/131/40 140/132/40 112/133/40 132/134/40
f 145/128/41 146/131/41 132/134/41 114/129/41
f 104/135/41 122/136/41 146/131/41 145/128/41
f 122/136/40 105/137/40 140/132/40 146/131/40
f 144/138/42 147/127/42 131/130/42 113/139/42
f 103/140/42 121/141/42 147/127/42 144/138/42
f 121/141/39 104/135/39 145/128/39 147/127/39
f 139/104/43 148/123/43 136/126/43 115/105/43
f 106/142/43 128/143/43 148/123/43 139/104/43
f 128/143/38 107/144/38 123/124/38 148/123/38
f 142/112/44 149/119/44 134/122/44 118/113/44
f 111/145/44 126/146/44 149/119/44 142/112/44
f 126/146/37 110/147/37 143/120/37 149/119/37
f 143/120/45 150/115/45 133/118/45 120/121/45
f 110/147/45 125/148/45 150/115/45 143/120/45
f 125/148/36 109/149/36 141/116/36 150/115/36
f 124/108/46 151/111/46 138/114/46 117/109/46
f 108/150/46 130/151/46 151/111/46 124/108/46
f 130/151/35 111/145/35 142/112/35 151/111/35
f 123/124/47 152/107/47 137/110/47 116/125/47
f 107/144/47 129/152/47 152/107/47 123/124/47
f 129/152/34 108/150/34 124/108/34 152/107/34
f 140/132/48 153/103/48 135/106/48 112/133/48
f 105/137/48 127/153/48 153/103/48 140/132/48
f 127/153/33 106/142/33 139/104/33 153/103/33
